<svg width="133" height="31" viewBox="0 0 133 31" fill="none" xmlns="http://www.w3.org/2000/svg">
<path d="M2.25136 30.361C1.87336 28.975 1.54936 27.616 1.27936 26.284C1.00936 24.97 0.802363 23.791 0.658363 22.747C0.514363 21.703 0.442363 20.929 0.442363 20.425C0.442363 19.093 0.658363 17.878 1.09036 16.78C1.52236 15.682 2.08036 14.719 2.76436 13.891C3.44836 13.045 4.18636 12.334 4.97836 11.758C5.77036 11.164 6.53536 10.723 7.27336 10.435C8.02936 10.129 8.66836 9.976 9.19036 9.976C9.64036 9.976 10.0364 10.075 10.3784 10.273C10.7204 10.471 11.0534 10.858 11.3774 11.434C11.7014 12.01 12.0434 12.856 12.4034 13.972C12.7454 14.998 13.0694 15.781 13.3754 16.321C13.6814 16.843 14.0144 17.203 14.3744 17.401C14.7344 17.581 15.1484 17.671 15.6164 17.671C15.9944 17.671 16.2644 17.779 16.4264 17.995C16.6064 18.193 16.6964 18.436 16.6964 18.724C16.6964 19.012 16.5704 19.282 16.3184 19.534C16.0664 19.768 15.7424 19.885 15.3464 19.885C14.6444 19.885 14.0414 19.759 13.5374 19.507C13.0514 19.255 12.6284 18.913 12.2684 18.481L12.8894 17.968C12.6734 18.49 12.3944 18.922 12.0524 19.264C11.7284 19.588 11.3594 19.831 10.9454 19.993C10.5494 20.155 10.1264 20.236 9.67636 20.236C9.15436 20.236 8.61436 20.137 8.05636 19.939C7.49836 19.759 6.94936 19.489 6.40936 19.129C5.86936 18.751 5.35636 18.292 4.87036 17.752C4.40236 17.212 3.98836 16.6 3.62836 15.916L3.89836 15.97C3.39436 16.672 3.06136 17.437 2.89936 18.265C2.73736 19.075 2.65636 19.795 2.65636 20.425C2.65636 20.929 2.71036 21.568 2.81836 22.342C2.92636 23.134 3.06136 23.971 3.22336 24.853C3.40336 25.735 3.59236 26.608 3.79036 27.472C4.00636 28.354 4.20436 29.146 4.38436 29.848L2.25136 30.361ZM9.89236 18.022C10.2164 18.022 10.4774 17.959 10.6754 17.833C10.8914 17.707 11.0354 17.518 11.1074 17.266C11.1794 17.014 11.1524 16.699 11.0264 16.321C10.8104 15.673 10.6124 15.106 10.4324 14.62C10.2524 14.116 10.0724 13.702 9.89236 13.378C9.73036 13.036 9.55936 12.784 9.37936 12.622C9.19936 12.46 9.01036 12.379 8.81236 12.379C8.61436 12.379 8.36236 12.424 8.05636 12.514C7.76836 12.604 7.45336 12.739 7.11136 12.919C6.78736 13.099 6.45436 13.324 6.11236 13.594C5.77036 13.864 5.44636 14.179 5.14036 14.539L5.16736 14.323C5.56336 15.151 6.04036 15.844 6.59836 16.402C7.17436 16.96 7.75036 17.374 8.32636 17.644C8.92036 17.896 9.44236 18.022 9.89236 18.022ZM15.3335 19.885L15.6035 17.671H17.6825C19.1765 17.671 20.2835 17.59 21.0035 17.428C21.7235 17.266 22.1915 17.05 22.4075 16.78C22.6415 16.51 22.7585 16.231 22.7585 15.943C22.7585 15.511 22.5965 15.034 22.2725 14.512C21.9485 13.99 21.5345 13.459 21.0305 12.919C20.5265 12.361 19.9865 11.812 19.4105 11.272C18.8525 10.732 18.3215 10.237 17.8175 9.787C17.3135 9.337 16.8995 8.95 16.5755 8.626C16.2515 8.284 16.0895 8.041 16.0895 7.897C16.0895 7.627 16.1075 7.366 16.1435 7.114C16.1975 6.862 16.2605 6.628 16.3325 6.412C16.4225 6.196 16.5305 6.025 16.6565 5.899C17.0165 5.521 17.5115 5.125 18.1415 4.711C18.7715 4.279 19.5005 3.847 20.3285 3.415C21.1565 2.965 22.0385 2.515 22.9745 2.065C23.9105 1.597 24.8555 1.129 25.8095 0.661L26.7275 2.659C25.8635 3.091 24.9995 3.523 24.1355 3.955C23.2715 4.369 22.4345 4.783 21.6245 5.197C20.8145 5.611 20.0495 6.034 19.3295 6.466C18.6275 6.88 17.9885 7.303 17.4125 7.735L17.5745 6.817C18.3845 7.501 19.1495 8.158 19.8695 8.788C20.5895 9.418 21.2735 10.066 21.9215 10.732C22.5695 11.38 23.1725 12.082 23.7305 12.838C24.2885 13.594 24.8105 14.431 25.2965 15.349C25.6745 16.051 26.1155 16.564 26.6195 16.888C27.1235 17.212 27.6185 17.428 28.1045 17.536C28.6085 17.626 29.0135 17.671 29.3195 17.671C29.6975 17.671 29.9675 17.779 30.1295 17.995C30.3095 18.193 30.3995 18.436 30.3995 18.724C30.3995 19.012 30.2735 19.282 30.0215 19.534C29.7695 19.768 29.4455 19.885 29.0495 19.885C28.5635 19.885 27.9875 19.813 27.3215 19.669C26.6735 19.507 26.0345 19.201 25.4045 18.751C24.7745 18.301 24.2525 17.617 23.8385 16.699L24.6485 17.023C24.3785 17.509 24.0635 17.932 23.7035 18.292C23.3615 18.634 22.9205 18.931 22.3805 19.183C21.8405 19.417 21.1835 19.597 20.4095 19.723C19.6355 19.831 18.6905 19.885 17.5745 19.885H15.3335ZM29.0444 19.885L29.3144 17.671C30.2144 17.671 30.9164 17.608 31.4204 17.482C31.9244 17.338 32.3024 17.077 32.5544 16.699C32.8244 16.303 33.0404 15.736 33.2024 14.998C33.3644 14.26 33.5624 13.297 33.7964 12.109L35.9024 12.514C35.8304 12.838 35.7494 13.198 35.6594 13.594C35.5694 13.99 35.4884 14.386 35.4164 14.782C35.3624 15.16 35.3354 15.493 35.3354 15.781C35.3354 16.051 35.3534 16.303 35.3894 16.537C35.4254 16.771 35.5604 16.969 35.7944 17.131C36.0284 17.293 36.4244 17.428 36.9824 17.536C37.5404 17.626 38.3414 17.671 39.3854 17.671C39.7634 17.671 40.0334 17.779 40.1954 17.995C40.3754 18.193 40.4654 18.436 40.4654 18.724C40.4654 19.012 40.3394 19.282 40.0874 19.534C39.8354 19.768 39.5114 19.885 39.1154 19.885C38.0174 19.885 37.1444 19.831 36.4964 19.723C35.8484 19.597 35.3534 19.417 35.0114 19.183C34.6874 18.949 34.4534 18.661 34.3094 18.319C34.1834 17.959 34.0844 17.545 34.0124 17.077L34.8224 17.131C34.5344 17.707 34.2194 18.175 33.8774 18.535C33.5534 18.895 33.1754 19.174 32.7434 19.372C32.3114 19.57 31.7894 19.705 31.1774 19.777C30.5834 19.849 29.8724 19.885 29.0444 19.885ZM35.8484 24.988C35.4704 24.988 35.1464 24.853 34.8764 24.583C34.6244 24.331 34.4984 24.025 34.4984 23.665C34.4984 23.305 34.6244 22.99 34.8764 22.72C35.1464 22.45 35.4704 22.315 35.8484 22.315C36.2084 22.315 36.5144 22.45 36.7664 22.72C37.0364 22.99 37.1714 23.305 37.1714 23.665C37.1714 24.025 37.0364 24.331 36.7664 24.583C36.5144 24.853 36.2084 24.988 35.8484 24.988ZM32.1494 24.988C31.7714 24.988 31.4474 24.853 31.1774 24.583C30.9254 24.331 30.7994 24.025 30.7994 23.665C30.7994 23.305 30.9254 22.99 31.1774 22.72C31.4474 22.45 31.7714 22.315 32.1494 22.315C32.5094 22.315 32.8154 22.45 33.0674 22.72C33.3374 22.99 33.4724 23.305 33.4724 23.665C33.4724 24.025 33.3374 24.331 33.0674 24.583C32.8154 24.853 32.5094 24.988 32.1494 24.988ZM39.1167 19.885L39.3597 17.671C40.3857 17.671 41.1057 17.572 41.5197 17.374C41.9337 17.176 42.1677 16.825 42.2217 16.321C42.2937 15.817 42.3117 15.115 42.2757 14.215L41.8167 0.471999H44.0577L44.4897 14.161C44.5257 15.079 44.6697 15.799 44.9217 16.321C45.1917 16.825 45.5517 17.176 46.0017 17.374C46.4517 17.572 46.9467 17.671 47.4867 17.671C47.8647 17.671 48.1347 17.779 48.2967 17.995C48.4767 18.193 48.5667 18.436 48.5667 18.724C48.5667 19.012 48.4407 19.282 48.1887 19.534C47.9367 19.768 47.6127 19.885 47.2167 19.885C46.4607 19.885 45.8307 19.768 45.3267 19.534C44.8407 19.282 44.4537 18.967 44.1657 18.589C43.8957 18.193 43.7157 17.779 43.6257 17.347L44.1927 17.401C44.0127 17.941 43.7157 18.4 43.3017 18.778C42.9057 19.138 42.3657 19.417 41.6817 19.615C40.9977 19.795 40.1427 19.885 39.1167 19.885ZM47.2114 19.885L47.4814 17.671C48.6154 17.671 49.4884 17.662 50.1004 17.644C50.7304 17.626 51.1894 17.608 51.4774 17.59C51.7654 17.554 51.9634 17.536 52.0714 17.536C51.7474 17.356 51.3694 17.077 50.9374 16.699C50.5054 16.303 50.1274 15.808 49.8034 15.214C49.4794 14.602 49.3174 13.882 49.3174 13.054C49.3174 12.028 49.5514 11.128 50.0194 10.354C50.5054 9.58 51.1624 8.977 51.9904 8.545C52.8364 8.113 53.7994 7.897 54.8794 7.897C55.2934 7.897 55.7344 7.933 56.2024 8.005C56.6704 8.077 57.1204 8.185 57.5524 8.329L57.0934 10.408C56.7334 10.318 56.3554 10.246 55.9594 10.192C55.5634 10.138 55.2034 10.111 54.8794 10.111C54.2314 10.111 53.6554 10.237 53.1514 10.489C52.6474 10.723 52.2514 11.056 51.9634 11.488C51.6754 11.92 51.5314 12.442 51.5314 13.054C51.5314 13.522 51.6304 13.954 51.8284 14.35C52.0264 14.728 52.2874 15.07 52.6114 15.376C52.9354 15.682 53.2954 15.934 53.6914 16.132C54.0874 16.33 54.4744 16.483 54.8524 16.591C55.2484 16.699 55.5994 16.744 55.9054 16.726C56.1214 16.654 56.3194 16.591 56.4994 16.537C56.6794 16.483 56.8774 16.42 57.0934 16.348C57.3274 16.258 57.6064 16.141 57.9304 15.997C58.2724 15.853 58.7044 15.664 59.2264 15.43L59.9824 17.401C58.7764 17.887 57.5434 18.319 56.2834 18.697C55.0414 19.075 53.6824 19.372 52.2064 19.588C50.7484 19.786 49.0834 19.885 47.2114 19.885ZM70.1977 30.361C69.8917 29.173 69.6217 28.012 69.3877 26.878C69.1717 25.744 69.0097 24.7 68.9017 23.746C68.7937 22.792 68.7397 22.009 68.7397 21.397C68.7397 20.299 68.9377 19.39 69.3337 18.67C69.7297 17.932 70.2607 17.365 70.9267 16.969C71.5927 16.555 72.3307 16.276 73.1407 16.132C73.9687 15.988 74.8147 15.943 75.6787 15.997C76.5607 16.033 77.3887 16.141 78.1627 16.321C78.2167 15.709 78.1807 15.124 78.0547 14.566C77.9467 13.99 77.7577 13.486 77.4877 13.054C77.2357 12.604 76.9117 12.253 76.5157 12.001C76.1197 11.749 75.6697 11.623 75.1657 11.623C74.7157 11.623 74.2927 11.722 73.8967 11.92C73.5007 12.118 73.1227 12.424 72.7627 12.838C72.4207 13.234 72.0877 13.729 71.7637 14.323L70.0897 13.405C70.5577 12.433 71.0707 11.659 71.6287 11.083C72.2047 10.507 72.8077 10.093 73.4377 9.841C74.0677 9.571 74.6887 9.436 75.3007 9.436C76.2187 9.436 76.9927 9.634 77.6227 10.03C78.2527 10.408 78.7477 10.912 79.1077 11.542C79.4857 12.154 79.7557 12.82 79.9177 13.54C80.0977 14.242 80.1877 14.917 80.1877 15.565C80.1877 16.015 80.1337 16.465 80.0257 16.915C79.9177 17.365 79.7827 17.77 79.6207 18.13C79.4767 18.49 79.3327 18.769 79.1887 18.967C78.2167 18.679 77.3077 18.472 76.4617 18.346C75.6157 18.22 74.8507 18.184 74.1667 18.238C73.5007 18.274 72.9247 18.418 72.4387 18.67C71.9527 18.922 71.5837 19.282 71.3317 19.75C71.0797 20.218 70.9537 20.812 70.9537 21.532C70.9537 22.198 71.0077 22.99 71.1157 23.908C71.2237 24.826 71.3767 25.789 71.5747 26.797C71.7727 27.823 72.0067 28.831 72.2767 29.821L70.1977 30.361ZM97.4508 19.885C96.3708 19.885 95.4798 19.795 94.7778 19.615C94.0938 19.435 93.5538 19.156 93.1578 18.778C92.7798 18.4 92.5098 17.923 92.3478 17.347C92.2038 16.753 92.1138 16.051 92.0778 15.241L91.5378 0.471999H93.7518L94.2918 14.377C94.3278 15.259 94.4088 15.943 94.5348 16.429C94.6788 16.897 94.9848 17.221 95.4528 17.401C95.9388 17.581 96.6948 17.671 97.7208 17.671C98.0988 17.671 98.3688 17.779 98.5308 17.995C98.7108 18.193 98.8008 18.436 98.8008 18.724C98.8008 19.012 98.6748 19.282 98.4228 19.534C98.1708 19.768 97.8468 19.885 97.4508 19.885ZM85.1118 19.885C84.6258 19.885 84.1308 19.84 83.6268 19.75C83.1408 19.678 82.7988 19.624 82.6008 19.588L82.8978 17.455C84.1398 17.617 85.3098 17.644 86.4078 17.536C87.5058 17.428 88.4598 17.122 89.2698 16.618C90.0978 16.096 90.7458 15.313 91.2138 14.269C91.6818 13.225 91.9158 11.866 91.9158 10.192L93.2118 13.432C92.9958 14.566 92.6718 15.52 92.2398 16.294C91.8078 17.05 91.3038 17.671 90.7278 18.157C90.1698 18.625 89.5668 18.985 88.9188 19.237C88.2708 19.489 87.6228 19.66 86.9748 19.75C86.3268 19.84 85.7058 19.885 85.1118 19.885ZM90.9708 16.186C90.6828 15.628 90.2778 14.98 89.7558 14.242C89.2338 13.486 88.6038 12.667 87.8658 11.785C87.1278 10.903 86.2908 9.985 85.3548 9.031C84.4368 8.077 83.4378 7.114 82.3578 6.142L83.8158 4.603C85.0038 5.737 86.0568 6.799 86.9748 7.789C87.9108 8.761 88.7298 9.679 89.4318 10.543C90.1338 11.389 90.7368 12.163 91.2408 12.865C91.7448 13.567 92.1678 14.206 92.5098 14.782L90.9708 16.186ZM97.4409 19.885L97.7109 17.671C98.2869 17.671 98.7549 17.635 99.1149 17.563C99.4749 17.473 99.7719 17.266 100.006 16.942C100.258 16.6 100.492 16.069 100.708 15.349C100.924 14.629 101.176 13.621 101.464 12.325L103.489 12.892C103.381 13.342 103.255 13.882 103.111 14.512C102.967 15.142 102.895 15.718 102.895 16.24C102.895 16.528 102.967 16.78 103.111 16.996C103.255 17.212 103.498 17.383 103.84 17.509C104.2 17.617 104.677 17.671 105.271 17.671C105.811 17.671 106.252 17.626 106.594 17.536C106.936 17.446 107.215 17.23 107.431 16.888C107.665 16.546 107.872 15.997 108.052 15.241C108.232 14.485 108.421 13.45 108.619 12.136L110.671 12.514C110.617 12.838 110.554 13.234 110.482 13.702C110.41 14.17 110.338 14.638 110.266 15.106C110.212 15.556 110.185 15.934 110.185 16.24C110.185 16.492 110.239 16.735 110.347 16.969C110.473 17.185 110.707 17.356 111.049 17.482C111.409 17.608 111.94 17.671 112.642 17.671C113.542 17.671 114.19 17.482 114.586 17.104C115 16.726 115.207 16.15 115.207 15.376C115.207 14.962 115.198 14.53 115.18 14.08C115.162 13.612 115.126 13.099 115.072 12.541C115.036 11.965 114.973 11.308 114.883 10.57L116.854 10.435C116.962 11.893 117.079 13.09 117.205 14.026C117.349 14.962 117.547 15.7 117.799 16.24C118.069 16.762 118.429 17.131 118.879 17.347C119.329 17.563 119.923 17.671 120.661 17.671C121.039 17.671 121.309 17.779 121.471 17.995C121.651 18.193 121.741 18.436 121.741 18.724C121.741 19.012 121.615 19.282 121.363 19.534C121.111 19.768 120.787 19.885 120.391 19.885C119.779 19.885 119.23 19.804 118.744 19.642C118.276 19.462 117.862 19.228 117.502 18.94C117.16 18.634 116.872 18.292 116.638 17.914C116.422 17.518 116.269 17.104 116.179 16.672L116.665 16.834C116.467 17.644 116.152 18.274 115.72 18.724C115.306 19.156 114.811 19.462 114.235 19.642C113.659 19.804 113.047 19.885 112.399 19.885C111.607 19.885 110.959 19.786 110.455 19.588C109.951 19.39 109.555 19.093 109.267 18.697C108.997 18.283 108.817 17.761 108.727 17.131H109.645C109.303 17.905 108.943 18.49 108.565 18.886C108.187 19.282 107.719 19.552 107.161 19.696C106.603 19.822 105.865 19.885 104.947 19.885C104.497 19.885 104.011 19.813 103.489 19.669C102.985 19.525 102.544 19.246 102.166 18.832C101.788 18.4 101.563 17.761 101.491 16.915L102.301 16.753C101.995 17.671 101.617 18.355 101.167 18.805C100.735 19.237 100.213 19.525 99.6009 19.669C98.9889 19.813 98.2689 19.885 97.4409 19.885ZM120.38 19.885L120.623 17.671C121.649 17.671 122.369 17.572 122.783 17.374C123.197 17.176 123.431 16.825 123.485 16.321C123.557 15.817 123.575 15.115 123.539 14.215L123.026 0.471999H125.213L125.753 13.972C125.789 14.926 125.753 15.772 125.645 16.51C125.555 17.248 125.321 17.869 124.943 18.373C124.583 18.877 124.034 19.255 123.296 19.507C122.576 19.759 121.604 19.885 120.38 19.885ZM129.878 19.75L129.338 0.471999H131.525L132.065 19.75H129.878Z" fill="#424242"/>
</svg>
